<?xml version="1.0" encoding="UTF-8"?><svg id="a" xmlns="http://www.w3.org/2000/svg" viewBox="0 0 980 956.35"><path d="M662.47,777.3c-101.18,80.25-308.16-11.24-308.16-11.24,0,0,153.61,183.59,395.03,101.77-84.05-18.4-93.42-85.33-86.86-90.53Z" style="fill:#fcaf17;"/><path d="M792.45,658.99c-20.85,27.62-45.31,52.46-73,73.48,6.31,47.56,40.93,82.01,91.22,88.57,35.45-29.78,67.04-64.34,93.94-102.35-47.69,8.44-91.01-14.19-112.17-59.7Z" style="fill:#fcaf17;"/><path d="M848.5,502.8c-4.78,35.52-14.37,69.69-28.48,101.61,24.51,42.1,69.93,60.54,118.33,47.07,21.63-47.85,36.05-99.19,41.65-152.5-39.02,33.6-90.15,35.22-131.5,3.82Z" style="fill:#fcaf17;"/><path d="M817.9,335.02c14.1,33.41,23.64,69.38,27.61,107.28,41.86,28.45,92.52,24.54,130.39-11.11-5.57-55.83-20.12-108.58-41.86-157.14-19.26,46.05-64.04,70.22-116.14,60.97Z" style="fill:#fcaf17;"/><path d="M791,283.19c51.68,6.4,95.03-20.7,111.86-69.1-38.81-54.88-88.16-101.4-144.73-137.02,14.9,50.46-5.45,98.37-52.09,122.65,32.43,23.1,61.16,51.28,84.97,83.47Z" style="fill:#fcaf17;"/><path d="M158.52,446.59c19.25-163.01,107.06-246.02,246.67-293.41,86.54-29.38,182.05-15.48,235.88,7.09,46.89-19.1,72.93-76.41,48.91-126.86-.02.03-40.28-15.24-56.33-19.5h0C579.61-.69,504.6-3.37,445.74,3.88,155.17,39.7-23.09,263.94,2.42,527.78c8.35,86.41,39.04,165.75,85.65,232.61l.03-.04c94.9,136.18,295.58,209.37,471.34,193.97-224.48-35.59-434.24-225.59-400.92-507.73Z" style="fill:#00b9b5;"/></svg>