<?xml version="1.0" encoding="UTF-8"?>
<svg id="Layer_1" data-name="Layer 1" xmlns="http://www.w3.org/2000/svg" viewBox="0 0 140.21 140">
  <defs>
    <style>
      .cls-1 {
        isolation: isolate;
        opacity: .16;
      }

      .cls-1, .cls-2 {
        fill: #fff;
      }

      .cls-1, .cls-2, .cls-3 {
        stroke-width: 0px;
      }

      .cls-3 {
        fill: #eb6a39;
      }
    </style>
  </defs>
  <g id="Layer_2" data-name="Layer 2">
    <g id="Layer_3" data-name="Layer 3">
      <g id="geego_icon_knowhowto" data-name="geego icon knowhowto">
        <circle id="Ellipse_31" data-name="Ellipse 31" class="cls-3" cx="70.21" cy="70" r="70"/>
        <path id="Path_2044" data-name="Path 2044" class="cls-1" d="m108.31,11.6L31.51,128.5C-.79,107.3-9.69,63.9,11.51,31.7S76.11-9.6,108.31,11.6Z"/>
      </g>
    </g>
  </g>
  <path class="cls-2" d="m98.25,59.83c0-7.47-2.91-14.5-8.2-19.78-5.29-5.29-12.31-8.2-19.78-8.2s-14.5,2.91-19.78,8.2c-5.29,5.29-8.2,12.31-8.2,19.78,0,5.94,1.66,11.36,4.81,15.69,2.11,2.9,4,6.1,5.6,9.51,1.8,3.82,2.75,8.06,2.75,12.28v.41c0,2.42,1.71,4.46,3.98,4.96v2.94h-.76c-.82,0-1.48.66-1.48,1.48s.66,1.48,1.48,1.48h.76v3.65h-.76c-.82,0-1.48.66-1.48,1.48s.66,1.48,1.48,1.48h.77c.1,2.58,1.16,5,3,6.83l1.84,1.84c.52.52,1.21.8,1.94.8h8.09c.74,0,1.42-.29,1.94-.8l1.84-1.84c1.84-1.84,2.89-4.25,3-6.83h.65c.82,0,1.48-.66,1.48-1.48s-.66-1.48-1.48-1.48h-.64v-3.65h.64c.82,0,1.48-.66,1.48-1.48s-.66-1.48-1.48-1.48h-.64v-2.94c2.27-.5,3.98-2.53,3.98-4.96v-.41c0-4.22.95-8.46,2.75-12.28,1.61-3.41,3.49-6.61,5.6-9.51,3.14-4.32,4.81-9.75,4.81-15.69h0Zm-22.25,60.1l-1.78,1.78h-7.91l-1.78-1.78c-1.28-1.28-2.02-2.95-2.13-4.74h15.71c-.1,1.79-.84,3.46-2.13,4.74Zm2.14-7.7h-15.74v-3.65h15.74v3.65Zm-15.74-6.61v-2.83h15.74v2.83h-15.74Zm22.76-21.85c-1.99,4.21-3.03,8.89-3.03,13.55v.41c0,1.16-.95,2.11-2.11,2.11h-19.48c-1.16,0-2.11-.95-2.11-2.11v-.41c0-4.65-1.05-9.33-3.03-13.55-1.69-3.58-3.67-6.94-5.89-9.99-2.77-3.81-4.24-8.63-4.24-13.95,0-13.79,11.22-25.02,25.02-25.02s25.02,11.22,25.02,25.02c0,5.31-1.47,10.13-4.24,13.95-2.22,3.05-4.2,6.41-5.89,9.99Z"/>
  <path class="cls-2" d="m70.27,41.95c-10.14,0-18.38,8.25-18.38,18.38,0,.82.66,1.48,1.48,1.48s1.48-.66,1.48-1.48c0-8.51,6.92-15.42,15.42-15.42.82,0,1.48-.66,1.48-1.48s-.66-1.48-1.48-1.48h0Z"/>
  <path class="cls-2" d="m70.21,27.7c.82,0,1.48-.66,1.48-1.48v-9.41c0-.82-.66-1.48-1.48-1.48s-1.48.66-1.48,1.48v9.41c0,.82.66,1.48,1.48,1.48Z"/>
  <path class="cls-2" d="m45.04,37.26c.29.29.67.43,1.05.43s.76-.14,1.05-.43c.58-.58.58-1.52,0-2.09l-6.65-6.65c-.58-.58-1.52-.58-2.09,0s-.58,1.52,0,2.09l6.65,6.65h0Z"/>
  <path class="cls-2" d="m36.1,58.85h-9.41c-.82,0-1.48.66-1.48,1.48s.66,1.48,1.48,1.48h9.41c.82,0,1.48-.66,1.48-1.48s-.66-1.48-1.48-1.48Z"/>
  <path class="cls-2" d="m45.04,83.41l-6.65,6.65c-.58.58-.58,1.52,0,2.09.29.29.67.43,1.05.43s.76-.14,1.05-.43l6.65-6.65c.58-.58.58-1.52,0-2.09s-1.52-.58-2.09,0h0Z"/>
  <path class="cls-2" d="m99.93,28.51l-6.65,6.65c-.58.58-.58,1.52,0,2.09.29.29.67.43,1.05.43s.76-.14,1.05-.43l6.65-6.65c.58-.58.58-1.52,0-2.09s-1.52-.58-2.09,0h0Z"/>
  <path class="cls-2" d="m113.73,58.85h-9.41c-.82,0-1.48.66-1.48,1.48s.66,1.48,1.48,1.48h9.41c.82,0,1.48-.66,1.48-1.48s-.66-1.48-1.48-1.48Z"/>
  <path class="cls-2" d="m95.38,83.41c-.58-.58-1.52-.58-2.09,0s-.58,1.52,0,2.09l6.65,6.65c.29.29.67.43,1.05.43s.76-.14,1.05-.43c.58-.58.58-1.52,0-2.09l-6.65-6.65h0Z"/>
</svg>