<?xml version="1.0" encoding="UTF-8"?>
<svg id="Layer_1" data-name="Layer 1" xmlns="http://www.w3.org/2000/svg" viewBox="0 0 140 140">
  <defs>
    <style>
      .cls-1 {
        isolation: isolate;
        opacity: .2;
      }

      .cls-1, .cls-2 {
        fill: #fff;
      }

      .cls-1, .cls-2, .cls-3 {
        stroke-width: 0px;
      }

      .cls-3 {
        fill: #0074ac;
      }
    </style>
  </defs>
  <g id="Layer_2" data-name="Layer 2">
    <g id="Layer_3" data-name="Layer 3">
      <g id="geego_icon_games" data-name="geego icon games">
        <circle id="Ellipse_37" data-name="Ellipse 37" class="cls-3" cx="70" cy="70" r="70"/>
        <path id="Path_2078" data-name="Path 2078" class="cls-1" d="m108.5,11.6L31.5,128.4C-.3,106.4-8.1,62.8,14,31,35.3.4,76.9-8.2,108.5,11.6Z"/>
      </g>
    </g>
  </g>
  <g>
    <path class="cls-2" d="m82.38,101.64h-.35c-.5,0-.98-.2-1.33-.56l-39.37-39.37c-.36-.36-.56-.83-.56-1.33-.02-2.57.19-5.15.63-7.66.18-1.04,1.17-1.73,2.21-1.55,1.04.18,1.73,1.17,1.55,2.21-.36,2.03-.55,4.11-.57,6.2l38.26,38.26c10-.11,19.32-4,26.32-10.99,14.77-14.77,14.77-38.81,0-53.58-14.77-14.77-38.81-14.77-53.58,0-.72.72-1.41,1.47-2.06,2.23-.68.8-1.89.9-2.69.22s-.9-1.88-.22-2.69c.72-.84,1.48-1.67,2.27-2.46,16.26-16.25,42.71-16.25,58.96,0,16.25,16.26,16.25,42.71,0,58.96-7.82,7.82-18.27,12.11-29.46,12.11h0Z"/>
    <path class="cls-2" d="m57.32,65.5c-.49,0-.98-.19-1.35-.56l-6.45-6.45c-.74-.74-.74-1.95,0-2.69.74-.74,1.95-.74,2.69,0l6.45,6.45c.74.74.74,1.95,0,2.69-.37.37-.86.56-1.35.56h0Z"/>
    <path class="cls-2" d="m68.53,95.33c2.71,1.06,5.58,1.78,8.58,2.17l-32.2-32.2c.39,3,1.11,5.87,2.17,8.58l21.45,21.45h0Zm13.51,6.31h-.02c-5.43-.04-10.58-1.03-15.28-2.92-.24-.1-.46-.24-.63-.42l-22.01-22.01c-.18-.18-.32-.4-.42-.63-1.9-4.7-2.88-9.84-2.92-15.28,0-.77.46-1.47,1.17-1.77s1.54-.14,2.08.41l39.37,39.37c.55.55.71,1.37.41,2.08-.3.71-.99,1.17-1.76,1.17h0Z"/>
    <path class="cls-2" d="m44.8,91.13l-16.55,16.55c-.26.26-.41.61-.41.99s.14.72.41.99l4.51,4.51c.26.26.61.41.99.41s.72-.14.99-.41l16.55-16.55-6.48-6.48h0Zm-11.06,27.25c-1.39,0-2.7-.54-3.68-1.52l-4.51-4.51c-.98-.98-1.52-2.29-1.52-3.68s.54-2.7,1.52-3.68l17.9-17.9c.74-.74,1.95-.74,2.69,0l9.17,9.17c.36.36.56.84.56,1.35s-.2.99-.56,1.35l-17.9,17.9c-.98.98-2.29,1.52-3.68,1.52h0Z"/>
    <path class="cls-2" d="m46.74,87.69l7.98,7.98,8.36-.41-15.93-15.93-.41,8.36h0Zm7.23,11.83c-.5,0-.99-.2-1.35-.56l-9.17-9.17c-.38-.38-.58-.9-.56-1.44l.66-13.49c.04-.75.51-1.41,1.22-1.69.7-.27,1.5-.1,2.03.43l22.01,22.01c.53.53.7,1.33.43,2.03s-.93,1.18-1.69,1.22l-13.49.66h-.09Z"/>
    <path class="cls-2" d="m41.67,30.46c-5.73,0-10.39,4.66-10.39,10.39s4.66,10.39,10.39,10.39,10.39-4.66,10.39-10.39-4.66-10.39-10.39-10.39h0Zm0,24.6c-7.83,0-14.2-6.37-14.2-14.2s6.37-14.2,14.2-14.2,14.2,6.37,14.2,14.2-6.37,14.2-14.2,14.2h0Z"/>
  </g>
</svg>