<?xml version="1.0" encoding="UTF-8"?>
<svg id="Layer_1" data-name="Layer 1" xmlns="http://www.w3.org/2000/svg" viewBox="0 0 140 140">
  <defs>
    <style>
      .cls-1 {
        isolation: isolate;
        opacity: .18;
      }

      .cls-1, .cls-2 {
        fill: #fff;
      }

      .cls-1, .cls-2, .cls-3 {
        stroke-width: 0px;
      }

      .cls-3 {
        fill: #6b377c;
      }
    </style>
  </defs>
  <g id="Layer_2" data-name="Layer 2">
    <g id="Layer_3" data-name="Layer 3">
      <g id="geego_icon_challenge_1_2" data-name="geego icon challenge 1 2">
        <circle id="Ellipse_36-2" data-name="Ellipse 36-2" class="cls-3" cx="70" cy="70" r="70"/>
        <path id="Path_2076-2" data-name="Path 2076-2" class="cls-1" d="m108.8,11.6L31.5,128.4C-.8,107.1-9.6,63.6,11.7,31.4S76.5-9.7,108.8,11.6h0Z"/>
      </g>
    </g>
  </g>
  <g id="NewGroupe21">
    <g id="NewGroup3-2">
      <g>
        <path class="cls-2" d="m43.25,60.5c0-.65.65-1.3,1.29-1.3h1.29v-9.71h-2.59v11.01h0Z"/>
        <path class="cls-2" d="m43.25,108.63v-1.3h-20.71v-57.84h-2.59v59.14c0,.65.65,1.3,1.29,1.3h23.3c-.65,0-1.29-.65-1.29-1.3h0Z"/>
        <path class="cls-2" d="m32.9,33.31l13.81,13.6h-27.61l13.81-13.6h0Zm-16.83,16.19h33.65c.86,0,1.29-.43,1.29-1.3,0-.22-.22-.65-.43-.86l-16.83-16.83c-.43-.43-1.29-.43-1.73,0l-16.83,16.83c-.2.2-.35.44-.43.68v.83c.22.43.65.65,1.29.65h0Z"/>
        <path class="cls-2" d="m96.75,107.34v1.3c0,.65-.65,1.3-1.29,1.3h23.3c.65,0,1.29-.65,1.29-1.3v-59.13h-2.59v57.84h-20.71,0Z"/>
        <path class="cls-2" d="m96.75,60.5v-11.01h-2.59v9.71h1.29c.65,0,1.29.65,1.29,1.3h0Z"/>
        <path class="cls-2" d="m118.75,46.9h-25.46l13.81-13.6,13.81,13.6h-2.16Zm-10.79-16.4c-.22-.22-.43-.43-.86-.43s-.65.22-.86.43l-16.83,16.83c-.43.43-.65,1.08-.43,1.51.22.43.65.65,1.29.65h33.65c.86,0,1.29-.43,1.29-1.3,0-.22-.22-.65-.43-.86l-16.83-16.83h0Z"/>
        <path class="cls-2" d="m43.25,60.5v48.13c0,.65.65,1.3,1.29,1.3h12.08c-.65,0-1.29-.65-1.29-1.3v-1.3h-9.49v-45.54h48.32v45.54h-9.49v1.3c0,.65-.65,1.3-1.29,1.3h12.08c.65,0,1.29-.65,1.29-1.3v-48.13c0-.65-.65-1.3-1.29-1.3h-50.92c-.65,0-1.29.65-1.29,1.3h0Z"/>
        <path class="cls-2" d="m84.67,108.63v-22.23c0-.65-.65-1.3-1.29-1.3h-13.38c.65,0,1.29.65,1.29,1.3v1.3h10.79v19.64h-10.79v1.3c0,.65-.65,1.3-1.29,1.3h13.38c.65,0,1.29-.65,1.29-1.3h0Z"/>
        <path class="cls-2" d="m68.71,108.63v-1.3h-10.79v-19.64h10.79v-1.3c0-.65.65-1.3,1.29-1.3h-13.38c-.65,0-1.29.65-1.29,1.3v22.23c0,.65.65,1.3,1.29,1.3h13.38c-.65,0-1.29-.65-1.29-1.3h0Z"/>
        <path class="cls-2" d="m68.71,86.4v9.71h2.59v-9.71c0-.65-.65-1.3-1.29-1.3s-1.29.65-1.29,1.3h0Z"/>
        <path class="cls-2" d="m71.29,108.63v-9.93h-2.59v9.93c0,.65.65,1.3,1.29,1.3s1.29-.65,1.29-1.3h0Z"/>
        <path class="cls-2" d="m68.71,97.41c0-.65.65-1.3,1.29-1.3h-3.24c-.65,0-1.29.65-1.29,1.3,0,.86.65,1.3,1.29,1.3h3.24c-.65,0-1.29-.43-1.29-1.3h0Z"/>
        <path class="cls-2" d="m74.53,97.41c0-.65-.65-1.3-1.29-1.3h-3.24c-.65,0-1.29.65-1.29,1.3,0,.86.65,1.3,1.29,1.3h3.24c.65,0,1.29-.43,1.29-1.3h0Z"/>
        <path class="cls-2" d="m102.58,63.09c.65,0,1.29-.65,1.29-1.3v-6.47c0-.65-.65-1.3-1.29-1.3-.86,0-1.29.65-1.29,1.3v6.47c0,.65.43,1.3,1.29,1.3h0Z"/>
        <path class="cls-2" d="m111.64,63.09c.86,0,1.29-.65,1.29-1.3v-6.47c0-.65-.43-1.3-1.29-1.3-.65,0-1.29.65-1.29,1.3v6.47c0,.65.65,1.3,1.29,1.3h0Z"/>
        <path class="cls-2" d="m102.58,76.26c.65,0,1.29-.65,1.29-1.3v-6.26c0-.86-.65-1.3-1.29-1.3-.86,0-1.29.43-1.29,1.3v6.26c0,.65.43,1.3,1.29,1.3h0Z"/>
        <path class="cls-2" d="m111.64,76.26c.86,0,1.29-.65,1.29-1.3v-6.26c0-.86-.43-1.3-1.29-1.3-.65,0-1.29.43-1.29,1.3v6.26c0,.65.65,1.3,1.29,1.3h0Z"/>
        <path class="cls-2" d="m102.58,89.42c.65,0,1.29-.43,1.29-1.3v-6.26c0-.65-.65-1.3-1.29-1.3-.86,0-1.29.65-1.29,1.3v6.26c0,.86.43,1.3,1.29,1.3h0Z"/>
        <path class="cls-2" d="m111.64,89.42c.86,0,1.29-.43,1.29-1.3v-6.26c0-.65-.43-1.3-1.29-1.3-.65,0-1.29.65-1.29,1.3v6.26c0,.86.65,1.3,1.29,1.3h0Z"/>
        <path class="cls-2" d="m102.58,102.8c.65,0,1.29-.65,1.29-1.3v-6.47c0-.65-.65-1.3-1.29-1.3-.86,0-1.29.65-1.29,1.3v6.47c0,.65.43,1.3,1.29,1.3h0Z"/>
        <path class="cls-2" d="m111.64,102.8c.86,0,1.29-.65,1.29-1.3v-6.47c0-.65-.43-1.3-1.29-1.3-.65,0-1.29.65-1.29,1.3v6.47c0,.65.65,1.3,1.29,1.3h0Z"/>
        <path class="cls-2" d="m28.36,63.09c.65,0,1.29-.65,1.29-1.3v-6.47c0-.65-.65-1.3-1.29-1.3-.86,0-1.29.65-1.29,1.3v6.47c0,.65.43,1.3,1.29,1.3h0Z"/>
        <path class="cls-2" d="m37.42,63.09c.86,0,1.29-.65,1.29-1.3v-6.47c0-.65-.43-1.3-1.29-1.3-.65,0-1.29.65-1.29,1.3v6.47c0,.65.65,1.3,1.29,1.3h0Z"/>
        <path class="cls-2" d="m28.36,76.26c.65,0,1.29-.65,1.29-1.3v-6.26c0-.86-.65-1.3-1.29-1.3-.86,0-1.29.43-1.29,1.3v6.26c0,.65.43,1.3,1.29,1.3h0Z"/>
        <path class="cls-2" d="m37.42,76.26c.86,0,1.29-.65,1.29-1.3v-6.26c0-.86-.43-1.3-1.29-1.3-.65,0-1.29.43-1.29,1.3v6.26c0,.65.65,1.3,1.29,1.3h0Z"/>
        <path class="cls-2" d="m28.36,89.42c.65,0,1.29-.43,1.29-1.3v-6.26c0-.65-.65-1.3-1.29-1.3-.86,0-1.29.65-1.29,1.3v6.26c0,.86.43,1.3,1.29,1.3h0Z"/>
        <path class="cls-2" d="m37.42,89.42c.86,0,1.29-.43,1.29-1.3v-6.26c0-.65-.43-1.3-1.29-1.3-.65,0-1.29.65-1.29,1.3v6.26c0,.86.65,1.3,1.29,1.3h0Z"/>
        <path class="cls-2" d="m28.36,102.8c.65,0,1.29-.65,1.29-1.3v-6.47c0-.65-.65-1.3-1.29-1.3-.86,0-1.29.65-1.29,1.3v6.47c0,.65.43,1.3,1.29,1.3h0Z"/>
        <path class="cls-2" d="m37.42,102.8c.86,0,1.29-.65,1.29-1.3v-6.47c0-.65-.43-1.3-1.29-1.3-.65,0-1.29.65-1.29,1.3v6.47c0,.65.65,1.3,1.29,1.3h0Z"/>
        <path class="cls-2" d="m56.84,76.69v-6.47c0-.65-.65-1.3-1.29-1.3-.86,0-1.29.65-1.29,1.3v6.47c0,.65.43,1.3,1.29,1.3.65,0,1.29-.65,1.29-1.3h0Z"/>
        <path class="cls-2" d="m64.61,77.98c.86,0,1.29-.65,1.29-1.3v-6.47c0-.65-.43-1.3-1.29-1.3-.65,0-1.29.65-1.29,1.3v6.47c0,.65.65,1.3,1.29,1.3h0Z"/>
        <path class="cls-2" d="m75.39,77.98c.65,0,1.29-.65,1.29-1.3v-6.47c0-.65-.65-1.3-1.29-1.3-.86,0-1.29.65-1.29,1.3v6.47c0,.65.43,1.3,1.29,1.3h0Z"/>
        <path class="cls-2" d="m84.45,77.98c.86,0,1.29-.65,1.29-1.3v-6.47c0-.65-.43-1.3-1.29-1.3-.65,0-1.29.65-1.29,1.3v6.47c0,.65.65,1.3,1.29,1.3h0Z"/>
      </g>
    </g>
  </g>
</svg>